<svg xmlns="http://www.w3.org/2000/svg" width="760" height="440">
<rect width="100%" height="100%" fill="white"/>
<text x="380.0" y="24" text-anchor="middle" font-family="sans-serif" font-size="18">Training loss</text>
<line x1="70" y1="35" x2="70" y2="380" stroke="#222"/>
<line x1="70" y1="380" x2="730" y2="380" stroke="#222"/>
<text x="18" y="207.5" transform="rotate(-90 18 207.5)" text-anchor="middle" font-family="sans-serif">Cross-entropy</text>
<text x="400.0" y="422" text-anchor="middle" font-family="sans-serif">Epoch</text>
<line x1="70" y1="35.00" x2="730" y2="35.00" stroke="#ddd"/>
<text x="62" y="39.00" text-anchor="end" font-family="sans-serif" font-size="11">7.401</text>
<line x1="70" y1="104.00" x2="730" y2="104.00" stroke="#ddd"/>
<text x="62" y="108.00" text-anchor="end" font-family="sans-serif" font-size="11">7.072</text>
<line x1="70" y1="173.00" x2="730" y2="173.00" stroke="#ddd"/>
<text x="62" y="177.00" text-anchor="end" font-family="sans-serif" font-size="11">6.743</text>
<line x1="70" y1="242.00" x2="730" y2="242.00" stroke="#ddd"/>
<text x="62" y="246.00" text-anchor="end" font-family="sans-serif" font-size="11">6.414</text>
<line x1="70" y1="311.00" x2="730" y2="311.00" stroke="#ddd"/>
<text x="62" y="315.00" text-anchor="end" font-family="sans-serif" font-size="11">6.085</text>
<line x1="70" y1="380.00" x2="730" y2="380.00" stroke="#ddd"/>
<text x="62" y="384.00" text-anchor="end" font-family="sans-serif" font-size="11">5.756</text>
<polyline points="70.00,35.00 235.00,194.25 400.00,273.52 565.00,333.27 730.00,380.00" fill="none" stroke="#2563eb" stroke-width="3"/>
<polyline points="70.00,127.54 235.00,191.44 400.00,234.06 565.00,258.02 730.00,272.41" fill="none" stroke="#dc2626" stroke-width="3"/>
<line x1="555" y1="22" x2="580" y2="22" stroke="#2563eb" stroke-width="3"/><text x="586" y="26" font-family="sans-serif" font-size="12">train</text>
<line x1="645" y1="22" x2="670" y2="22" stroke="#dc2626" stroke-width="3"/><text x="676" y="26" font-family="sans-serif" font-size="12">validation</text>
</svg>